<?xml version="1.0" encoding="UTF-8"?>
<!-- Created with Inkscape (http://www.inkscape.org/) -->
<svg width="512" height="512" version="1.1" viewBox="0 0 512 512" xml:space="preserve" xmlns="http://www.w3.org/2000/svg"><g fill="none"><g transform="matrix(-5.1178 -5.2778 5.4857 -5.3194 302.46 549.41)" stroke="#000f0f" stroke-linecap="round"><g transform="matrix(-1.277 1.2286 -1.277 -1.2286 40.716 13.129)" fill="none"><rect transform="rotate(-.88182)" x="-12.428" y="-19.853" width="38.398" height="38.398" fill="#faffff" fill-opacity=".9" stroke-opacity="0"/><path d="m15.725 9.5053c-0.39602 0.396-0.59402 0.594-0.82235 0.6682-0.20085 0.0653-0.41719 0.0653-0.61804 0-0.22833-0.0742-0.42633-0.2722-0.82235-0.6682l-2.8384-2.8384c-0.34064 0.7532-0.53026 1.5894-0.53026 2.4698 0 3.3137 2.6863 6 6 6 0.49104 0 0.9683-0.059 1.4251-0.1703 0.48915-0.1191 0.73371-0.1787 0.88821-0.1682 0.1618 0.0111 0.2479 0.0352 0.3918 0.1098 0.1375 0.0713 0.274 0.2078 0.5471 0.48086l6.2478 6.2478c0.8284 0.82843 2.1716 0.82843 3 0 0.8284-0.82842 0.8284-2.1716 0-3l-6.2478-6.2478c-0.2731-0.2731-0.4096-0.4096-0.4808-0.5471-0.0746-0.144-0.0987-0.23-0.1098-0.3918-0.0106-0.1545 0.049-0.3991 0.1681-0.8882 0.1113-0.4568 0.1703-0.9341 0.1703-1.4251 0-3.3137-2.6863-6-6-6-0.88041 0-1.7165 0.1896-2.4697 0.5302l2.8384 2.8384c0.39602 0.396 0.59402 0.594 0.66821 0.8224 0.06526 0.2008 0.06526 0.4171 0 0.618-0.07419 0.2283-0.27219 0.4263-0.66821 0.8223z" stroke="#000e0f" stroke-linecap="round" stroke-linejoin="round" stroke-width="2"/></g></g><g transform="matrix(14.438 -13.476 13.476 14.438 -129.14 203.78)" stroke="#000e0f"><path d="m5.9999 5c-0.26729 0-0.40093 0-0.51648 0.00894-1.3623 0.10542-2.4813 1.1181-2.7217 2.4631-0.0204 0.11409-0.0337 0.24707-0.06029 0.51303l-0.68069 6.6053m7.9792 0.4096h4m-4 0c0 2.2091-1.7908 4-3.9999 4s-4-1.7909-4-4 1.7909-4 4-4 3.9999 1.7909 3.9999 4zm4 0c0 2.2091 1.791 4 4.0001 4s4-1.7909 4-4-1.7909-4-4-4-4.0001 1.7909-4.0001 4zm4.0151-10c0.2673 0 0.4009 0 0.5165 0.00894 1.3623 0.10542 2.4812 1.1181 2.7217 2.4631 0.0204 0.11409 0.0337 0.24707 0.0603 0.51303l0.6669 6.6169" stroke="#000e0f" stroke-linecap="round" stroke-linejoin="round" stroke-width="2"/></g></g></svg>
