<?xml version="1.0" encoding="UTF-8"?>
<!-- Created with Inkscape (http://www.inkscape.org/) -->
<svg width="512" height="512" version="1.1" viewBox="0 0 512 512" xml:space="preserve" xmlns="http://www.w3.org/2000/svg"><g fill-opacity="0" stroke="#000f0f"><g transform="matrix(33.333 0 0 33.333 -293.69 -397.83)"><path d="m10.093 17.623c-0.09391 0.09392-0.14087 0.14087-0.17833 0.18461-0.44161 0.51569-0.47897 1.2646-0.09087 1.8217 0.03292 0.04725 0.07496 0.09865 0.15907 0.20144l2.0816 2.5599m2.9474-2.6596 1.4054-1.4054m-1.4054 1.4054c0.77617 0.77617 0.77621 2.0346 2.7e-5 2.8108-0.77618 0.77618-2.0346 0.77617-2.8108 0s-0.77618-2.0346 0-2.8108c0.77618-0.77618 2.0346-0.77614 2.8108 2.7e-5zm1.4054-1.4054c0.77617 0.77617 2.0347 0.77614 2.8108-3.6e-5 0.77617-0.77617 0.77617-2.0346 0-2.8108-0.77617-0.77617-2.0346-0.77617-2.8108 0-0.77617 0.77617-0.7762 2.0347-3.4e-5 2.8108zm-2.1028-4.9242c0.09392-0.09392 0.14086-0.14086 0.18461-0.17833 0.51568-0.4416 1.2646-0.47893 1.8217-0.09084 0.04725 0.03292 0.09865 0.07496 0.20144 0.15907l2.5592 2.0905" fill-opacity="0" stroke="#000f0f" stroke-linecap="round" stroke-linejoin="round" stroke-width=".99377"/></g><g transform="matrix(0 -11.843 12.269 0 238.76 530.28)"><path d="m15.632 7.6314c-0.396-0.39602-0.594-0.59402-0.6682-0.82235-0.0653-0.20085-0.0653-0.41719 0-0.61804 0.0742-0.22833 0.2722-0.42633 0.6682-0.82235l2.8384-2.8384c-0.7532-0.34064-1.5894-0.53026-2.4698-0.53026-3.3137 0-6 2.6863-6 6 0 0.49104 0.059 0.9683 0.1703 1.4251 0.1191 0.48915 0.1787 0.73371 0.1682 0.88821-0.0111 0.1618-0.0352 0.2479-0.1098 0.3918-0.0713 0.1375-0.2078 0.274-0.48086 0.5471l-6.2478 6.2478c-0.82843 0.8284-0.82843 2.1716 0 3 0.82842 0.8284 2.1716 0.8284 3 0l6.2478-6.2478c0.2731-0.2731 0.4096-0.4096 0.5471-0.4808 0.144-0.0746 0.23-0.0987 0.3918-0.1098 0.1545-0.0106 0.3991 0.049 0.8882 0.1681 0.4568 0.1113 0.9341 0.1703 1.4251 0.1703 3.3137 0 6-2.6863 6-6 0-0.88041-0.1896-1.7165-0.5302-2.4697l-2.8384 2.8384c-0.396 0.39602-0.594 0.59402-0.8224 0.66821-0.2008 0.06526-0.4171 0.06526-0.618 0-0.2283-0.07419-0.4263-0.27219-0.8223-0.66821z" fill-opacity="0" stroke="#000f0f" stroke-linecap="round" stroke-linejoin="round" stroke-width="2"/></g></g></svg>
